<svg xmlns="http://www.w3.org/2000/svg" xmlns:xlink="http://www.w3.org/1999/xlink" width="1800" zoomAndPan="magnify" viewBox="0 0 1350 1349.999938" height="1800" preserveAspectRatio="xMidYMid meet" version="1.0"><defs><clipPath id="c7e2f3be1f"><path d="M 337.152344 131 L 943.988281 131 L 943.988281 873.160156 L 337.152344 873.160156 Z M 337.152344 131 " clipRule="nonzero"/></clipPath><clipPath id="c4e75e0f02"><path d="M 542.074219 12.496094 L 739 12.496094 L 739 152 L 542.074219 152 Z M 542.074219 12.496094 " clipRule="nonzero"/></clipPath></defs><g clip-path="url(#c7e2f3be1f)"><path fill="#ee4623" d="M 942.347656 754.730469 L 862.902344 283.574219 C 855.496094 233.304688 811.472656 195.441406 760.480469 195.441406 L 541.3125 195.441406 L 541.3125 216.773438 L 760.480469 216.773438 C 800.90625 216.773438 835.886719 246.832031 841.808594 286.695312 L 921.214844 757.890625 C 924.738281 781.464844 917.695312 805.359375 902.125 823.410156 C 886.515625 841.460938 863.863281 851.867188 839.929688 851.867188 L 441.015625 851.867188 C 437.972656 851.867188 434.851562 851.707031 431.808594 851.304688 C 425.523438 850.667969 419.441406 849.144531 413.519531 847.105469 C 409.394531 853.1875 405.351562 859.269531 401.269531 865.273438 C 406.953125 867.675781 412.878906 869.558594 418.921875 870.796875 C 426.125 872.4375 433.570312 873.238281 441.015625 873.238281 L 839.886719 873.238281 C 870.027344 873.238281 898.601562 860.152344 918.292969 837.378906 C 938.066406 814.566406 946.832031 784.46875 942.347656 754.730469 Z M 388.625 833.015625 C 385.101562 830.054688 381.859375 826.890625 378.738281 823.410156 C 363.089844 805.359375 356.164062 781.464844 359.648438 757.890625 L 439.054688 222.738281 C 444.976562 182.875 479.957031 152.777344 520.421875 152.777344 L 738.347656 152.777344 L 738.347656 131.445312 L 520.421875 131.445312 C 469.429688 131.445312 425.363281 169.308594 417.921875 219.578125 L 338.472656 754.730469 C 334.070312 784.46875 342.835938 814.566406 362.566406 837.339844 C 366.851562 842.300781 371.613281 846.863281 376.65625 850.785156 C 381.179688 854.386719 385.820312 857.511719 390.824219 860.230469 L 402.910156 842.582031 C 397.828125 839.898438 393.066406 836.699219 388.625 833.015625 Z M 388.625 833.015625 " fill-opacity="1" fillRule="nonzero"/></g><g clip-path="url(#c4e75e0f02)"><path fill="#ee4623" d="M 738.308594 151.65625 L 542.515625 151.65625 L 542.515625 94.984375 C 542.515625 47.757812 592.464844 12.496094 637.089844 12.496094 C 732.746094 12.496094 738.269531 99.746094 738.308594 100.585938 Z M 563.925781 130.285156 L 716.894531 130.285156 L 716.894531 101.105469 C 716.734375 98.90625 712.132812 33.789062 637.050781 33.789062 C 603.1875 33.789062 563.925781 60.523438 563.925781 94.945312 Z M 563.925781 130.285156 " fill-opacity="1" fillRule="nonzero"/></g><path fill="#ee4623" d="M 539.191406 648.226562 L 509.214844 821.089844 L 480.035156 778.542969 L 431.769531 851.265625 L 418.882812 870.71875 C 412.835938 869.4375 406.914062 867.554688 401.191406 865.15625 C 405.234375 859.191406 409.316406 853.066406 413.476562 847.023438 C 440.855469 806.441406 467.03125 767.65625 470.230469 763.253906 C 479.277344 750.566406 486.679688 760.695312 486.679688 760.695312 L 498.207031 780.707031 L 512.257812 686.851562 L 435.25 738.601562 C 435.25 738.601562 440.171875 738.320312 453.421875 739.199219 C 466.75 740.160156 462.1875 755.652344 462.1875 755.652344 L 403.03125 842.421875 L 390.90625 860.070312 C 385.941406 857.390625 381.21875 854.269531 376.777344 850.625 L 388.664062 832.855469 L 440.734375 755.570312 L 396.828125 740.921875 Z M 539.191406 648.226562 " fill-opacity="1" fillRule="nonzero"/><path fill="#ee4623" d="M 532.867188 752.808594 L 530.464844 731.636719 C 544.433594 730.035156 556.960938 723.152344 565.726562 712.183594 C 574.453125 701.179688 578.414062 687.492188 576.8125 673.5625 C 575.253906 659.632812 568.328125 647.148438 557.324219 638.421875 C 546.355469 629.695312 532.628906 625.773438 518.621094 627.335938 C 489.84375 630.578125 468.992188 656.632812 472.273438 685.371094 L 451.019531 687.8125 C 448.820312 668.238281 454.34375 648.90625 466.628906 633.5 C 478.957031 618.050781 496.527344 608.324219 516.21875 606.125 C 535.871094 603.882812 555.160156 609.445312 570.648438 621.730469 C 586.097656 634.019531 595.824219 651.550781 598.066406 671.160156 C 600.308594 690.734375 594.785156 710.023438 582.457031 725.433594 C 570.050781 740.84375 552.480469 750.566406 532.867188 752.808594 Z M 532.867188 752.808594 " fill-opacity="1" fillRule="nonzero"/><path fill="#591f27" d="M 386.800781 1145.1875 L 429.863281 1036.480469 L 472.570312 1145.1875 Z M 533.367188 1232.035156 L 429.863281 979.488281 L 326.003906 1232.035156 L 352.378906 1232.035156 L 377.753906 1167.757812 L 481.617188 1167.757812 L 506.992188 1232.035156 Z M 533.367188 1232.035156 " fill-opacity="1" fillRule="nonzero"/><path fill="#591f27" d="M 654.226562 1120.890625 L 743.519531 995.820312 L 712.621094 995.820312 L 642.097656 1096.917969 L 571.578125 995.820312 L 540.320312 995.820312 L 629.933594 1121.210938 L 629.933594 1232.035156 L 654.226562 1232.035156 Z M 654.226562 1120.890625 " fill-opacity="1" fillRule="nonzero"/><path fill="#591f27" d="M 797.34375 1058.015625 L 930.058594 1246.644531 L 930.058594 995.820312 L 905.726562 995.820312 L 905.726562 1169.519531 L 773.046875 980.890625 L 773.046875 1232.035156 L 797.34375 1232.035156 Z M 797.34375 1058.015625 " fill-opacity="1" fillRule="nonzero"/><path fill="#ee4623" d="M 388.929688 1428.667969 L 396.8125 1428.667969 L 379.242188 1348.101562 L 354.46875 1412.777344 L 329.695312 1348.101562 L 312.042969 1428.667969 L 320.050781 1428.667969 L 331.695312 1374.875 L 354.46875 1433.109375 L 377.164062 1374.875 Z M 388.929688 1428.667969 " fill-opacity="1" fillRule="nonzero"/><path fill="#ee4623" d="M 474.019531 1400.890625 L 487.785156 1366.109375 L 501.433594 1400.890625 Z M 520.886719 1428.667969 L 487.785156 1347.902344 L 454.566406 1428.667969 L 463.011719 1428.667969 L 471.097656 1408.09375 L 504.316406 1408.09375 L 512.441406 1428.667969 Z M 520.886719 1428.667969 " fill-opacity="1" fillRule="nonzero"/></svg>